{
	"asset":{
		"generator":"Khronos glTF Blender I/O v4.5.47",
		"version":"2.0"
	},
	"scene":0,
	"scenes":[
		{
			"name":"Scene",
			"nodes":[
				16
			]
		}
	],
	"nodes":[
		{
			"name":"Bone.001",
			"rotation":[
				1.4901159417490817e-08,
				-1.1920927533992653e-07,
				1.7763554629717112e-15,
				1
			],
			"scale":[
				1,
				1.0000001192092896,
				1.0000001192092896
			],
			"translation":[
				7.105427357601002e-15,
				1.387305498123169,
				-1.4901161193847656e-08
			]
		},
		{
			"name":"Bone.003.L",
			"rotation":[
				7.105427357601002e-15,
				0,
				-1.4210853868169056e-14,
				1
			],
			"translation":[
				4.470351555596608e-08,
				0.5506800413131714,
				-1.4901145206636102e-08
			]
		},
		{
			"children":[
				1
			],
			"name":"Bone.002.L",
			"rotation":[
				9.483039065116827e-08,
				-5.2683560625155224e-08,
				-0.7071067690849304,
				0.7071067690849304
			],
			"scale":[
				1.0000001192092896,
				1,
				1.0000001192092896
			],
			"translation":[
				0.5422928929328918,
				0.9030142426490784,
				1.441938621837835e-07
			]
		},
		{
			"name":"Bone.005.L",
			"rotation":[
				4.440909039159571e-16,
				1.5893251159582178e-08,
				-1.4901161193847656e-08,
				1
			],
			"translation":[
				2.2200747906708784e-09,
				0.6213085055351257,
				3.2573311159467266e-08
			]
		},
		{
			"children":[
				3
			],
			"name":"Bone.004.L",
			"rotation":[
				-0.70710688829422,
				-1.0536711059216941e-08,
				0.7071066498756409,
				1.0536711059216941e-08
			],
			"scale":[
				1.0000001192092896,
				1,
				1
			],
			"translation":[
				0.3490757942199707,
				0.3791671097278595,
				9.81273160505225e-08
			]
		},
		{
			"name":"Bone.003.R",
			"rotation":[
				-7.105427357601002e-15,
				0,
				-1.4210854715202004e-14,
				1
			],
			"translation":[
				-4.470345160711986e-08,
				0.5506800413131714,
				-1.490117718105921e-08
			]
		},
		{
			"children":[
				5
			],
			"name":"Bone.002.R",
			"rotation":[
				-5.2683560625155224e-08,
				-9.483039065116827e-08,
				0.7071067690849304,
				0.7071067690849304
			],
			"scale":[
				1.0000001192092896,
				1,
				1.0000001192092896
			],
			"translation":[
				-0.5422928929328918,
				0.9030142426490784,
				-1.1439153979608818e-07
			]
		},
		{
			"name":"Bone.005.R",
			"rotation":[
				4.440874628446089e-16,
				-1.5893260041366375e-08,
				1.4901159417490817e-08,
				1
			],
			"scale":[
				1.0000001192092896,
				1.0000001192092896,
				1
			],
			"translation":[
				-7.808004909293231e-09,
				0.621308445930481,
				3.257330405403991e-08
			]
		},
		{
			"children":[
				7
			],
			"name":"Bone.004.R",
			"rotation":[
				-0.7071066498756409,
				1.0536707506503262e-08,
				-0.70710688829422,
				1.0536711059216941e-08
			],
			"scale":[
				1.0000001192092896,
				1.0000001192092896,
				1
			],
			"translation":[
				-0.3490757942199707,
				0.3791671097278595,
				-6.832499366282718e-08
			]
		},
		{
			"children":[
				0,
				2,
				4,
				6,
				8
			],
			"name":"Bone",
			"rotation":[
				-3.725290653733282e-08,
				1.1920927533992653e-07,
				0,
				1
			],
			"scale":[
				1,
				0.9999999403953552,
				0.9999999403953552
			],
			"translation":[
				0,
				0.0392686128616333,
				-9.313225746154785e-10
			]
		},
		{
			"mesh":0,
			"name":"Arm L",
			"skin":0
		},
		{
			"mesh":1,
			"name":"Arm R",
			"skin":0
		},
		{
			"mesh":2,
			"name":"Body",
			"skin":0
		},
		{
			"mesh":3,
			"name":"Head",
			"skin":0
		},
		{
			"mesh":4,
			"name":"Leg L",
			"skin":0
		},
		{
			"mesh":5,
			"name":"Leg R",
			"skin":0
		},
		{
			"children":[
				10,
				11,
				12,
				13,
				14,
				15,
				9
			],
			"name":"Armature",
			"rotation":[
				0.2164396345615387,
				0,
				0,
				0.976296067237854
			],
			"translation":[
				0,
				0.14999999105930328,
				0
			]
		}
	],
	"animations":[
		{
			"channels":[
				{
					"sampler":0,
					"target":{
						"node":9,
						"path":"translation"
					}
				},
				{
					"sampler":1,
					"target":{
						"node":9,
						"path":"rotation"
					}
				},
				{
					"sampler":2,
					"target":{
						"node":9,
						"path":"scale"
					}
				},
				{
					"sampler":3,
					"target":{
						"node":0,
						"path":"translation"
					}
				},
				{
					"sampler":4,
					"target":{
						"node":0,
						"path":"rotation"
					}
				},
				{
					"sampler":5,
					"target":{
						"node":0,
						"path":"scale"
					}
				},
				{
					"sampler":6,
					"target":{
						"node":2,
						"path":"translation"
					}
				},
				{
					"sampler":7,
					"target":{
						"node":2,
						"path":"rotation"
					}
				},
				{
					"sampler":8,
					"target":{
						"node":2,
						"path":"scale"
					}
				},
				{
					"sampler":9,
					"target":{
						"node":1,
						"path":"translation"
					}
				},
				{
					"sampler":10,
					"target":{
						"node":1,
						"path":"rotation"
					}
				},
				{
					"sampler":11,
					"target":{
						"node":1,
						"path":"scale"
					}
				},
				{
					"sampler":12,
					"target":{
						"node":4,
						"path":"translation"
					}
				},
				{
					"sampler":13,
					"target":{
						"node":4,
						"path":"rotation"
					}
				},
				{
					"sampler":14,
					"target":{
						"node":4,
						"path":"scale"
					}
				},
				{
					"sampler":15,
					"target":{
						"node":3,
						"path":"translation"
					}
				},
				{
					"sampler":16,
					"target":{
						"node":3,
						"path":"rotation"
					}
				},
				{
					"sampler":17,
					"target":{
						"node":3,
						"path":"scale"
					}
				},
				{
					"sampler":18,
					"target":{
						"node":6,
						"path":"translation"
					}
				},
				{
					"sampler":19,
					"target":{
						"node":6,
						"path":"rotation"
					}
				},
				{
					"sampler":20,
					"target":{
						"node":6,
						"path":"scale"
					}
				},
				{
					"sampler":21,
					"target":{
						"node":5,
						"path":"translation"
					}
				},
				{
					"sampler":22,
					"target":{
						"node":5,
						"path":"rotation"
					}
				},
				{
					"sampler":23,
					"target":{
						"node":5,
						"path":"scale"
					}
				},
				{
					"sampler":24,
					"target":{
						"node":8,
						"path":"translation"
					}
				},
				{
					"sampler":25,
					"target":{
						"node":8,
						"path":"rotation"
					}
				},
				{
					"sampler":26,
					"target":{
						"node":8,
						"path":"scale"
					}
				},
				{
					"sampler":27,
					"target":{
						"node":7,
						"path":"translation"
					}
				},
				{
					"sampler":28,
					"target":{
						"node":7,
						"path":"rotation"
					}
				},
				{
					"sampler":29,
					"target":{
						"node":7,
						"path":"scale"
					}
				}
			],
			"name":"ArmatureAction",
			"samplers":[
				{
					"input":37,
					"interpolation":"LINEAR",
					"output":38
				},
				{
					"input":37,
					"interpolation":"LINEAR",
					"output":39
				},
				{
					"input":37,
					"interpolation":"LINEAR",
					"output":40
				},
				{
					"input":37,
					"interpolation":"LINEAR",
					"output":41
				},
				{
					"input":37,
					"interpolation":"LINEAR",
					"output":42
				},
				{
					"input":37,
					"interpolation":"LINEAR",
					"output":43
				},
				{
					"input":37,
					"interpolation":"LINEAR",
					"output":44
				},
				{
					"input":37,
					"interpolation":"LINEAR",
					"output":45
				},
				{
					"input":37,
					"interpolation":"LINEAR",
					"output":46
				},
				{
					"input":37,
					"interpolation":"LINEAR",
					"output":47
				},
				{
					"input":37,
					"interpolation":"LINEAR",
					"output":48
				},
				{
					"input":37,
					"interpolation":"LINEAR",
					"output":49
				},
				{
					"input":37,
					"interpolation":"LINEAR",
					"output":50
				},
				{
					"input":37,
					"interpolation":"LINEAR",
					"output":51
				},
				{
					"input":37,
					"interpolation":"LINEAR",
					"output":52
				},
				{
					"input":37,
					"interpolation":"LINEAR",
					"output":53
				},
				{
					"input":37,
					"interpolation":"LINEAR",
					"output":54
				},
				{
					"input":37,
					"interpolation":"LINEAR",
					"output":55
				},
				{
					"input":37,
					"interpolation":"LINEAR",
					"output":56
				},
				{
					"input":37,
					"interpolation":"LINEAR",
					"output":57
				},
				{
					"input":37,
					"interpolation":"LINEAR",
					"output":40
				},
				{
					"input":37,
					"interpolation":"LINEAR",
					"output":58
				},
				{
					"input":37,
					"interpolation":"LINEAR",
					"output":59
				},
				{
					"input":37,
					"interpolation":"LINEAR",
					"output":60
				},
				{
					"input":37,
					"interpolation":"LINEAR",
					"output":61
				},
				{
					"input":37,
					"interpolation":"LINEAR",
					"output":62
				},
				{
					"input":37,
					"interpolation":"LINEAR",
					"output":63
				},
				{
					"input":37,
					"interpolation":"LINEAR",
					"output":64
				},
				{
					"input":37,
					"interpolation":"LINEAR",
					"output":65
				},
				{
					"input":37,
					"interpolation":"LINEAR",
					"output":46
				}
			]
		}
	],
	"materials":[
		{
			"doubleSided":true,
			"name":"Material",
			"pbrMetallicRoughness":{
				"baseColorFactor":[
					0.800000011920929,
					0.800000011920929,
					0.800000011920929,
					1
				],
				"metallicFactor":0,
				"roughnessFactor":0.5
			}
		}
	],
	"meshes":[
		{
			"name":"Cylinder.004",
			"primitives":[
				{
					"attributes":{
						"POSITION":0,
						"NORMAL":1,
						"TEXCOORD_0":2,
						"JOINTS_0":3,
						"WEIGHTS_0":4
					},
					"indices":5
				}
			]
		},
		{
			"name":"Cylinder.003",
			"primitives":[
				{
					"attributes":{
						"POSITION":7,
						"NORMAL":8,
						"TEXCOORD_0":9,
						"JOINTS_0":10,
						"WEIGHTS_0":11
					},
					"indices":12
				}
			]
		},
		{
			"name":"Cube",
			"primitives":[
				{
					"attributes":{
						"POSITION":13,
						"NORMAL":14,
						"TEXCOORD_0":15,
						"JOINTS_0":16,
						"WEIGHTS_0":17
					},
					"indices":18,
					"material":0
				}
			]
		},
		{
			"name":"Cube.002",
			"primitives":[
				{
					"attributes":{
						"POSITION":19,
						"NORMAL":20,
						"TEXCOORD_0":21,
						"COLOR_0":22,
						"JOINTS_0":23,
						"WEIGHTS_0":24
					},
					"indices":25
				}
			]
		},
		{
			"name":"Cylinder.001",
			"primitives":[
				{
					"attributes":{
						"POSITION":26,
						"NORMAL":27,
						"TEXCOORD_0":28,
						"JOINTS_0":29,
						"WEIGHTS_0":30
					},
					"indices":31
				}
			]
		},
		{
			"name":"Cylinder",
			"primitives":[
				{
					"attributes":{
						"POSITION":32,
						"NORMAL":33,
						"TEXCOORD_0":34,
						"JOINTS_0":35,
						"WEIGHTS_0":36
					},
					"indices":31
				}
			]
		}
	],
	"skins":[
		{
			"inverseBindMatrices":6,
			"joints":[
				9,
				0,
				2,
				1,
				4,
				3,
				6,
				5,
				8,
				7
			],
			"name":"Armature"
		}
	],
	"accessors":[
		{
			"bufferView":0,
			"componentType":5126,
			"count":48,
			"max":[
				1.5,
				1.2122317552566528,
				0.5836817622184753
			],
			"min":[
				0.5,
				0.8137539029121399,
				0.22115866839885712
			],
			"type":"VEC3"
		},
		{
			"bufferView":1,
			"componentType":5126,
			"count":48,
			"type":"VEC3"
		},
		{
			"bufferView":2,
			"componentType":5126,
			"count":48,
			"type":"VEC2"
		},
		{
			"bufferView":3,
			"componentType":5121,
			"count":48,
			"type":"VEC4"
		},
		{
			"bufferView":4,
			"componentType":5126,
			"count":48,
			"type":"VEC4"
		},
		{
			"bufferView":5,
			"componentType":5123,
			"count":96,
			"type":"SCALAR"
		},
		{
			"bufferView":6,
			"componentType":5126,
			"count":10,
			"type":"MAT4"
		},
		{
			"bufferView":7,
			"componentType":5126,
			"count":48,
			"max":[
				-0.5,
				1.2122317552566528,
				0.5836817622184753
			],
			"min":[
				-1.5,
				0.8137539029121399,
				0.22115865349769592
			],
			"type":"VEC3"
		},
		{
			"bufferView":8,
			"componentType":5126,
			"count":48,
			"type":"VEC3"
		},
		{
			"bufferView":9,
			"componentType":5126,
			"count":48,
			"type":"VEC2"
		},
		{
			"bufferView":10,
			"componentType":5121,
			"count":48,
			"type":"VEC4"
		},
		{
			"bufferView":11,
			"componentType":5126,
			"count":48,
			"type":"VEC4"
		},
		{
			"bufferView":12,
			"componentType":5123,
			"count":96,
			"type":"SCALAR"
		},
		{
			"bufferView":13,
			"componentType":5126,
			"count":96,
			"max":[
				0.8395062685012817,
				1.6788004636764526,
				1.1452200412750244
			],
			"min":[
				-0.8395062685012817,
				0.05865926668047905,
				-0.4749213457107544
			],
			"type":"VEC3"
		},
		{
			"bufferView":14,
			"componentType":5126,
			"count":96,
			"type":"VEC3"
		},
		{
			"bufferView":15,
			"componentType":5126,
			"count":96,
			"type":"VEC2"
		},
		{
			"bufferView":16,
			"componentType":5121,
			"count":96,
			"type":"VEC4"
		},
		{
			"bufferView":17,
			"componentType":5126,
			"count":96,
			"type":"VEC4"
		},
		{
			"bufferView":18,
			"componentType":5123,
			"count":144,
			"type":"SCALAR"
		},
		{
			"bufferView":19,
			"componentType":5126,
			"count":384,
			"max":[
				0.6186570525169373,
				2.584977149963379,
				1.4694998264312744
			],
			"min":[
				-0.6186570525169373,
				1.3331270217895508,
				0.21764987707138062
			],
			"type":"VEC3"
		},
		{
			"bufferView":20,
			"componentType":5126,
			"count":384,
			"type":"VEC3"
		},
		{
			"bufferView":21,
			"componentType":5126,
			"count":384,
			"type":"VEC2"
		},
		{
			"bufferView":22,
			"componentType":5123,
			"count":384,
			"normalized":true,
			"type":"VEC4"
		},
		{
			"bufferView":23,
			"componentType":5121,
			"count":384,
			"type":"VEC4"
		},
		{
			"bufferView":24,
			"componentType":5126,
			"count":384,
			"type":"VEC4"
		},
		{
			"bufferView":25,
			"componentType":5123,
			"count":576,
			"type":"SCALAR"
		},
		{
			"bufferView":26,
			"componentType":5126,
			"count":48,
			"max":[
				0.5232051014900208,
				0.6443626880645752,
				0.3723726272583008
			],
			"min":[
				0.17679491639137268,
				-0.43099239468574524,
				-0.41276875138282776
			],
			"type":"VEC3"
		},
		{
			"bufferView":27,
			"componentType":5126,
			"count":48,
			"type":"VEC3"
		},
		{
			"bufferView":28,
			"componentType":5126,
			"count":48,
			"type":"VEC2"
		},
		{
			"bufferView":29,
			"componentType":5121,
			"count":48,
			"type":"VEC4"
		},
		{
			"bufferView":30,
			"componentType":5126,
			"count":48,
			"type":"VEC4"
		},
		{
			"bufferView":31,
			"componentType":5123,
			"count":96,
			"type":"SCALAR"
		},
		{
			"bufferView":32,
			"componentType":5126,
			"count":48,
			"max":[
				-0.17679491639137268,
				0.6443626880645752,
				0.3723726272583008
			],
			"min":[
				-0.5232051014900208,
				-0.43099239468574524,
				-0.41276875138282776
			],
			"type":"VEC3"
		},
		{
			"bufferView":33,
			"componentType":5126,
			"count":48,
			"type":"VEC3"
		},
		{
			"bufferView":34,
			"componentType":5126,
			"count":48,
			"type":"VEC2"
		},
		{
			"bufferView":35,
			"componentType":5121,
			"count":48,
			"type":"VEC4"
		},
		{
			"bufferView":36,
			"componentType":5126,
			"count":48,
			"type":"VEC4"
		},
		{
			"bufferView":37,
			"componentType":5126,
			"count":1,
			"max":[
				0.041666666666666664
			],
			"min":[
				0.041666666666666664
			],
			"type":"SCALAR"
		},
		{
			"bufferView":38,
			"componentType":5126,
			"count":1,
			"type":"VEC3"
		},
		{
			"bufferView":39,
			"componentType":5126,
			"count":1,
			"type":"VEC4"
		},
		{
			"bufferView":40,
			"componentType":5126,
			"count":1,
			"type":"VEC3"
		},
		{
			"bufferView":41,
			"componentType":5126,
			"count":1,
			"type":"VEC3"
		},
		{
			"bufferView":42,
			"componentType":5126,
			"count":1,
			"type":"VEC4"
		},
		{
			"bufferView":43,
			"componentType":5126,
			"count":1,
			"type":"VEC3"
		},
		{
			"bufferView":44,
			"componentType":5126,
			"count":1,
			"type":"VEC3"
		},
		{
			"bufferView":45,
			"componentType":5126,
			"count":1,
			"type":"VEC4"
		},
		{
			"bufferView":46,
			"componentType":5126,
			"count":1,
			"type":"VEC3"
		},
		{
			"bufferView":47,
			"componentType":5126,
			"count":1,
			"type":"VEC3"
		},
		{
			"bufferView":48,
			"componentType":5126,
			"count":1,
			"type":"VEC4"
		},
		{
			"bufferView":49,
			"componentType":5126,
			"count":1,
			"type":"VEC3"
		},
		{
			"bufferView":50,
			"componentType":5126,
			"count":1,
			"type":"VEC3"
		},
		{
			"bufferView":51,
			"componentType":5126,
			"count":1,
			"type":"VEC4"
		},
		{
			"bufferView":52,
			"componentType":5126,
			"count":1,
			"type":"VEC3"
		},
		{
			"bufferView":53,
			"componentType":5126,
			"count":1,
			"type":"VEC3"
		},
		{
			"bufferView":54,
			"componentType":5126,
			"count":1,
			"type":"VEC4"
		},
		{
			"bufferView":55,
			"componentType":5126,
			"count":1,
			"type":"VEC3"
		},
		{
			"bufferView":56,
			"componentType":5126,
			"count":1,
			"type":"VEC3"
		},
		{
			"bufferView":57,
			"componentType":5126,
			"count":1,
			"type":"VEC4"
		},
		{
			"bufferView":58,
			"componentType":5126,
			"count":1,
			"type":"VEC3"
		},
		{
			"bufferView":59,
			"componentType":5126,
			"count":1,
			"type":"VEC4"
		},
		{
			"bufferView":60,
			"componentType":5126,
			"count":1,
			"type":"VEC3"
		},
		{
			"bufferView":61,
			"componentType":5126,
			"count":1,
			"type":"VEC3"
		},
		{
			"bufferView":62,
			"componentType":5126,
			"count":1,
			"type":"VEC4"
		},
		{
			"bufferView":63,
			"componentType":5126,
			"count":1,
			"type":"VEC3"
		},
		{
			"bufferView":64,
			"componentType":5126,
			"count":1,
			"type":"VEC3"
		},
		{
			"bufferView":65,
			"componentType":5126,
			"count":1,
			"type":"VEC4"
		}
	],
	"bufferViews":[
		{
			"buffer":0,
			"byteLength":576,
			"byteOffset":0,
			"target":34962
		},
		{
			"buffer":0,
			"byteLength":576,
			"byteOffset":576,
			"target":34962
		},
		{
			"buffer":0,
			"byteLength":384,
			"byteOffset":1152,
			"target":34962
		},
		{
			"buffer":0,
			"byteLength":192,
			"byteOffset":1536,
			"target":34962
		},
		{
			"buffer":0,
			"byteLength":768,
			"byteOffset":1728,
			"target":34962
		},
		{
			"buffer":0,
			"byteLength":192,
			"byteOffset":2496,
			"target":34963
		},
		{
			"buffer":0,
			"byteLength":640,
			"byteOffset":2688
		},
		{
			"buffer":0,
			"byteLength":576,
			"byteOffset":3328,
			"target":34962
		},
		{
			"buffer":0,
			"byteLength":576,
			"byteOffset":3904,
			"target":34962
		},
		{
			"buffer":0,
			"byteLength":384,
			"byteOffset":4480,
			"target":34962
		},
		{
			"buffer":0,
			"byteLength":192,
			"byteOffset":4864,
			"target":34962
		},
		{
			"buffer":0,
			"byteLength":768,
			"byteOffset":5056,
			"target":34962
		},
		{
			"buffer":0,
			"byteLength":192,
			"byteOffset":5824,
			"target":34963
		},
		{
			"buffer":0,
			"byteLength":1152,
			"byteOffset":6016,
			"target":34962
		},
		{
			"buffer":0,
			"byteLength":1152,
			"byteOffset":7168,
			"target":34962
		},
		{
			"buffer":0,
			"byteLength":768,
			"byteOffset":8320,
			"target":34962
		},
		{
			"buffer":0,
			"byteLength":384,
			"byteOffset":9088,
			"target":34962
		},
		{
			"buffer":0,
			"byteLength":1536,
			"byteOffset":9472,
			"target":34962
		},
		{
			"buffer":0,
			"byteLength":288,
			"byteOffset":11008,
			"target":34963
		},
		{
			"buffer":0,
			"byteLength":4608,
			"byteOffset":11296,
			"target":34962
		},
		{
			"buffer":0,
			"byteLength":4608,
			"byteOffset":15904,
			"target":34962
		},
		{
			"buffer":0,
			"byteLength":3072,
			"byteOffset":20512,
			"target":34962
		},
		{
			"buffer":0,
			"byteLength":3072,
			"byteOffset":23584,
			"target":34962
		},
		{
			"buffer":0,
			"byteLength":1536,
			"byteOffset":26656,
			"target":34962
		},
		{
			"buffer":0,
			"byteLength":6144,
			"byteOffset":28192,
			"target":34962
		},
		{
			"buffer":0,
			"byteLength":1152,
			"byteOffset":34336,
			"target":34963
		},
		{
			"buffer":0,
			"byteLength":576,
			"byteOffset":35488,
			"target":34962
		},
		{
			"buffer":0,
			"byteLength":576,
			"byteOffset":36064,
			"target":34962
		},
		{
			"buffer":0,
			"byteLength":384,
			"byteOffset":36640,
			"target":34962
		},
		{
			"buffer":0,
			"byteLength":192,
			"byteOffset":37024,
			"target":34962
		},
		{
			"buffer":0,
			"byteLength":768,
			"byteOffset":37216,
			"target":34962
		},
		{
			"buffer":0,
			"byteLength":192,
			"byteOffset":37984,
			"target":34963
		},
		{
			"buffer":0,
			"byteLength":576,
			"byteOffset":38176,
			"target":34962
		},
		{
			"buffer":0,
			"byteLength":576,
			"byteOffset":38752,
			"target":34962
		},
		{
			"buffer":0,
			"byteLength":384,
			"byteOffset":39328,
			"target":34962
		},
		{
			"buffer":0,
			"byteLength":192,
			"byteOffset":39712,
			"target":34962
		},
		{
			"buffer":0,
			"byteLength":768,
			"byteOffset":39904,
			"target":34962
		},
		{
			"buffer":0,
			"byteLength":4,
			"byteOffset":40672
		},
		{
			"buffer":0,
			"byteLength":12,
			"byteOffset":40676
		},
		{
			"buffer":0,
			"byteLength":16,
			"byteOffset":40688
		},
		{
			"buffer":0,
			"byteLength":12,
			"byteOffset":40704
		},
		{
			"buffer":0,
			"byteLength":12,
			"byteOffset":40716
		},
		{
			"buffer":0,
			"byteLength":16,
			"byteOffset":40728
		},
		{
			"buffer":0,
			"byteLength":12,
			"byteOffset":40744
		},
		{
			"buffer":0,
			"byteLength":12,
			"byteOffset":40756
		},
		{
			"buffer":0,
			"byteLength":16,
			"byteOffset":40768
		},
		{
			"buffer":0,
			"byteLength":12,
			"byteOffset":40784
		},
		{
			"buffer":0,
			"byteLength":12,
			"byteOffset":40796
		},
		{
			"buffer":0,
			"byteLength":16,
			"byteOffset":40808
		},
		{
			"buffer":0,
			"byteLength":12,
			"byteOffset":40824
		},
		{
			"buffer":0,
			"byteLength":12,
			"byteOffset":40836
		},
		{
			"buffer":0,
			"byteLength":16,
			"byteOffset":40848
		},
		{
			"buffer":0,
			"byteLength":12,
			"byteOffset":40864
		},
		{
			"buffer":0,
			"byteLength":12,
			"byteOffset":40876
		},
		{
			"buffer":0,
			"byteLength":16,
			"byteOffset":40888
		},
		{
			"buffer":0,
			"byteLength":12,
			"byteOffset":40904
		},
		{
			"buffer":0,
			"byteLength":12,
			"byteOffset":40916
		},
		{
			"buffer":0,
			"byteLength":16,
			"byteOffset":40928
		},
		{
			"buffer":0,
			"byteLength":12,
			"byteOffset":40944
		},
		{
			"buffer":0,
			"byteLength":16,
			"byteOffset":40956
		},
		{
			"buffer":0,
			"byteLength":12,
			"byteOffset":40972
		},
		{
			"buffer":0,
			"byteLength":12,
			"byteOffset":40984
		},
		{
			"buffer":0,
			"byteLength":16,
			"byteOffset":40996
		},
		{
			"buffer":0,
			"byteLength":12,
			"byteOffset":41012
		},
		{
			"buffer":0,
			"byteLength":12,
			"byteOffset":41024
		},
		{
			"buffer":0,
			"byteLength":16,
			"byteOffset":41036
		}
	],
	"buffers":[
		{
			"byteLength":41052,
			"uri":"sitting.bin"
		}
	]
}
