{
	"asset":{
		"generator":"Khronos glTF Blender I/O v4.5.47",
		"version":"2.0"
	},
	"scene":0,
	"scenes":[
		{
			"name":"Scene",
			"nodes":[
				16
			]
		}
	],
	"nodes":[
		{
			"name":"Bone.001",
			"rotation":[
				-3.552713678800501e-15,
				-1.1920927533992653e-07,
				4.235165241142481e-22,
				1
			],
			"translation":[
				0,
				1.3873056173324585,
				0
			]
		},
		{
			"name":"Bone.003.L",
			"rotation":[
				7.105427357601002e-15,
				-8.881784197001252e-16,
				-1.4210854715202004e-14,
				1
			],
			"translation":[
				-1.1920926112907182e-07,
				0.5506801605224609,
				6.010156158560778e-16
			]
		},
		{
			"children":[
				1
			],
			"name":"Bone.002.L",
			"rotation":[
				9.974800008194507e-08,
				-6.883937686552599e-08,
				-0.7071067690849304,
				0.7071067690849304
			],
			"translation":[
				0.5422928929328918,
				0.9030141830444336,
				1.292926725682264e-07
			]
		},
		{
			"name":"Bone.005.L",
			"rotation":[
				6.352747104407253e-22,
				1.5893252935939017e-08,
				5.360130369343619e-22,
				1
			],
			"translation":[
				-1.7763559923673032e-15,
				0.6213085055351257,
				0
			]
		},
		{
			"children":[
				3
			],
			"name":"Bone.004.L",
			"rotation":[
				0.70710688829422,
				-5.024295358284445e-15,
				-0.7071066498756409,
				1.0481496145395123e-21
			],
			"translation":[
				0.3490757942199707,
				0.37916719913482666,
				8.322614064582012e-08
			]
		},
		{
			"name":"Bone.003.R",
			"rotation":[
				-7.105427357601002e-15,
				8.881784197001252e-16,
				-1.4210854715202004e-14,
				1
			],
			"translation":[
				1.1920931797249068e-07,
				0.5506801605224609,
				-6.010156158560778e-16
			]
		},
		{
			"children":[
				5
			],
			"name":"Bone.002.R",
			"rotation":[
				-6.883937686552599e-08,
				-9.974800008194507e-08,
				0.7071067690849304,
				0.7071067690849304
			],
			"translation":[
				-0.5422928929328918,
				0.9030141830444336,
				-1.292926725682264e-07
			]
		},
		{
			"name":"Bone.005.R",
			"rotation":[
				-2.117582368135751e-22,
				-1.5893260041366375e-08,
				-3.5527130435257905e-15,
				1
			],
			"translation":[
				8.470329472543003e-22,
				0.621308445930481,
				-2.9802322387695312e-08
			]
		},
		{
			"children":[
				7
			],
			"name":"Bone.004.R",
			"rotation":[
				0.7071066498756409,
				7.486782744623239e-22,
				0.70710688829422,
				5.024294511251498e-15
			],
			"translation":[
				-0.3490757942199707,
				0.37916719913482666,
				-8.322614064582012e-08
			]
		},
		{
			"children":[
				0,
				2,
				4,
				6,
				8
			],
			"name":"Bone",
			"rotation":[
				-2.980232594040899e-08,
				1.1920927533992653e-07,
				0,
				1
			],
			"scale":[
				1,
				0.9999999403953552,
				0.9999999403953552
			],
			"translation":[
				0,
				0.0392686128616333,
				0
			]
		},
		{
			"mesh":0,
			"name":"Arm L",
			"skin":0
		},
		{
			"mesh":1,
			"name":"Arm R",
			"skin":0
		},
		{
			"mesh":2,
			"name":"Body",
			"skin":0
		},
		{
			"mesh":3,
			"name":"Head",
			"skin":0
		},
		{
			"mesh":4,
			"name":"Leg L",
			"skin":0
		},
		{
			"mesh":5,
			"name":"Leg R",
			"skin":0
		},
		{
			"children":[
				10,
				11,
				12,
				13,
				14,
				15,
				9
			],
			"name":"Armature",
			"translation":[
				0,
				0.5477926731109619,
				0
			]
		}
	],
	"animations":[
		{
			"channels":[
				{
					"sampler":0,
					"target":{
						"node":9,
						"path":"translation"
					}
				},
				{
					"sampler":1,
					"target":{
						"node":9,
						"path":"rotation"
					}
				},
				{
					"sampler":2,
					"target":{
						"node":9,
						"path":"scale"
					}
				},
				{
					"sampler":3,
					"target":{
						"node":0,
						"path":"translation"
					}
				},
				{
					"sampler":4,
					"target":{
						"node":0,
						"path":"rotation"
					}
				},
				{
					"sampler":5,
					"target":{
						"node":0,
						"path":"scale"
					}
				},
				{
					"sampler":6,
					"target":{
						"node":2,
						"path":"translation"
					}
				},
				{
					"sampler":7,
					"target":{
						"node":2,
						"path":"rotation"
					}
				},
				{
					"sampler":8,
					"target":{
						"node":2,
						"path":"scale"
					}
				},
				{
					"sampler":9,
					"target":{
						"node":1,
						"path":"translation"
					}
				},
				{
					"sampler":10,
					"target":{
						"node":1,
						"path":"rotation"
					}
				},
				{
					"sampler":11,
					"target":{
						"node":1,
						"path":"scale"
					}
				},
				{
					"sampler":12,
					"target":{
						"node":4,
						"path":"translation"
					}
				},
				{
					"sampler":13,
					"target":{
						"node":4,
						"path":"rotation"
					}
				},
				{
					"sampler":14,
					"target":{
						"node":4,
						"path":"scale"
					}
				},
				{
					"sampler":15,
					"target":{
						"node":3,
						"path":"translation"
					}
				},
				{
					"sampler":16,
					"target":{
						"node":3,
						"path":"rotation"
					}
				},
				{
					"sampler":17,
					"target":{
						"node":3,
						"path":"scale"
					}
				},
				{
					"sampler":18,
					"target":{
						"node":6,
						"path":"translation"
					}
				},
				{
					"sampler":19,
					"target":{
						"node":6,
						"path":"rotation"
					}
				},
				{
					"sampler":20,
					"target":{
						"node":6,
						"path":"scale"
					}
				},
				{
					"sampler":21,
					"target":{
						"node":5,
						"path":"translation"
					}
				},
				{
					"sampler":22,
					"target":{
						"node":5,
						"path":"rotation"
					}
				},
				{
					"sampler":23,
					"target":{
						"node":5,
						"path":"scale"
					}
				},
				{
					"sampler":24,
					"target":{
						"node":8,
						"path":"translation"
					}
				},
				{
					"sampler":25,
					"target":{
						"node":8,
						"path":"rotation"
					}
				},
				{
					"sampler":26,
					"target":{
						"node":8,
						"path":"scale"
					}
				},
				{
					"sampler":27,
					"target":{
						"node":7,
						"path":"translation"
					}
				},
				{
					"sampler":28,
					"target":{
						"node":7,
						"path":"rotation"
					}
				},
				{
					"sampler":29,
					"target":{
						"node":7,
						"path":"scale"
					}
				}
			],
			"name":"ArmatureAction",
			"samplers":[
				{
					"input":37,
					"interpolation":"STEP",
					"output":38
				},
				{
					"input":37,
					"interpolation":"STEP",
					"output":39
				},
				{
					"input":37,
					"interpolation":"STEP",
					"output":40
				},
				{
					"input":37,
					"interpolation":"STEP",
					"output":41
				},
				{
					"input":37,
					"interpolation":"STEP",
					"output":42
				},
				{
					"input":37,
					"interpolation":"STEP",
					"output":43
				},
				{
					"input":37,
					"interpolation":"STEP",
					"output":44
				},
				{
					"input":37,
					"interpolation":"STEP",
					"output":45
				},
				{
					"input":37,
					"interpolation":"STEP",
					"output":46
				},
				{
					"input":37,
					"interpolation":"STEP",
					"output":47
				},
				{
					"input":37,
					"interpolation":"STEP",
					"output":48
				},
				{
					"input":37,
					"interpolation":"STEP",
					"output":43
				},
				{
					"input":37,
					"interpolation":"STEP",
					"output":49
				},
				{
					"input":50,
					"interpolation":"LINEAR",
					"output":51
				},
				{
					"input":37,
					"interpolation":"STEP",
					"output":43
				},
				{
					"input":37,
					"interpolation":"LINEAR",
					"output":52
				},
				{
					"input":50,
					"interpolation":"LINEAR",
					"output":53
				},
				{
					"input":37,
					"interpolation":"LINEAR",
					"output":54
				},
				{
					"input":37,
					"interpolation":"STEP",
					"output":55
				},
				{
					"input":37,
					"interpolation":"STEP",
					"output":56
				},
				{
					"input":37,
					"interpolation":"STEP",
					"output":46
				},
				{
					"input":37,
					"interpolation":"STEP",
					"output":57
				},
				{
					"input":37,
					"interpolation":"STEP",
					"output":58
				},
				{
					"input":37,
					"interpolation":"STEP",
					"output":43
				},
				{
					"input":37,
					"interpolation":"STEP",
					"output":59
				},
				{
					"input":37,
					"interpolation":"STEP",
					"output":60
				},
				{
					"input":37,
					"interpolation":"STEP",
					"output":43
				},
				{
					"input":37,
					"interpolation":"STEP",
					"output":61
				},
				{
					"input":37,
					"interpolation":"STEP",
					"output":62
				},
				{
					"input":37,
					"interpolation":"STEP",
					"output":43
				}
			]
		}
	],
	"materials":[
		{
			"doubleSided":true,
			"name":"Material",
			"pbrMetallicRoughness":{
				"baseColorFactor":[
					0.800000011920929,
					0.800000011920929,
					0.800000011920929,
					1
				],
				"metallicFactor":0,
				"roughnessFactor":0.5
			}
		}
	],
	"meshes":[
		{
			"name":"Cylinder.004",
			"primitives":[
				{
					"attributes":{
						"POSITION":0,
						"NORMAL":1,
						"TEXCOORD_0":2,
						"JOINTS_0":3,
						"WEIGHTS_0":4
					},
					"indices":5
				}
			]
		},
		{
			"name":"Cylinder.003",
			"primitives":[
				{
					"attributes":{
						"POSITION":7,
						"NORMAL":8,
						"TEXCOORD_0":9,
						"JOINTS_0":10,
						"WEIGHTS_0":11
					},
					"indices":12
				}
			]
		},
		{
			"name":"Cube",
			"primitives":[
				{
					"attributes":{
						"POSITION":13,
						"NORMAL":14,
						"TEXCOORD_0":15,
						"JOINTS_0":16,
						"WEIGHTS_0":17
					},
					"indices":18,
					"material":0
				}
			]
		},
		{
			"name":"Cube.002",
			"primitives":[
				{
					"attributes":{
						"POSITION":19,
						"NORMAL":20,
						"TEXCOORD_0":21,
						"COLOR_0":22,
						"JOINTS_0":23,
						"WEIGHTS_0":24
					},
					"indices":25
				}
			]
		},
		{
			"name":"Cylinder.001",
			"primitives":[
				{
					"attributes":{
						"POSITION":26,
						"NORMAL":27,
						"TEXCOORD_0":28,
						"JOINTS_0":29,
						"WEIGHTS_0":30
					},
					"indices":12
				}
			]
		},
		{
			"name":"Cylinder",
			"primitives":[
				{
					"attributes":{
						"POSITION":31,
						"NORMAL":32,
						"TEXCOORD_0":33,
						"JOINTS_0":34,
						"WEIGHTS_0":35
					},
					"indices":36
				}
			]
		}
	],
	"skins":[
		{
			"inverseBindMatrices":6,
			"joints":[
				9,
				0,
				2,
				1,
				4,
				3,
				6,
				5,
				8,
				7
			],
			"name":"Armature"
		}
	],
	"accessors":[
		{
			"bufferView":0,
			"componentType":5126,
			"count":48,
			"max":[
				1.5,
				1.6732051372528076,
				0.20000000298023224
			],
			"min":[
				0.5,
				1.3267948627471924,
				-0.20000000298023224
			],
			"type":"VEC3"
		},
		{
			"bufferView":1,
			"componentType":5126,
			"count":48,
			"type":"VEC3"
		},
		{
			"bufferView":2,
			"componentType":5126,
			"count":48,
			"type":"VEC2"
		},
		{
			"bufferView":3,
			"componentType":5121,
			"count":48,
			"type":"VEC4"
		},
		{
			"bufferView":4,
			"componentType":5126,
			"count":48,
			"type":"VEC4"
		},
		{
			"bufferView":5,
			"componentType":5123,
			"count":96,
			"type":"SCALAR"
		},
		{
			"bufferView":6,
			"componentType":5126,
			"count":10,
			"type":"MAT4"
		},
		{
			"bufferView":7,
			"componentType":5126,
			"count":33,
			"max":[
				-0.5,
				1.6732051372528076,
				0.20000000298023224
			],
			"min":[
				-1.5,
				1.3267948627471924,
				-0.20000000298023224
			],
			"type":"VEC3"
		},
		{
			"bufferView":8,
			"componentType":5126,
			"count":33,
			"type":"VEC3"
		},
		{
			"bufferView":9,
			"componentType":5126,
			"count":33,
			"type":"VEC2"
		},
		{
			"bufferView":10,
			"componentType":5121,
			"count":33,
			"type":"VEC4"
		},
		{
			"bufferView":11,
			"componentType":5126,
			"count":33,
			"type":"VEC4"
		},
		{
			"bufferView":12,
			"componentType":5123,
			"count":96,
			"type":"SCALAR"
		},
		{
			"bufferView":13,
			"componentType":5126,
			"count":39,
			"max":[
				0.8395062685012817,
				2.1803297996520996,
				0.8395062685012817
			],
			"min":[
				-0.8395062685012817,
				0.5013171434402466,
				-0.8395062685012817
			],
			"type":"VEC3"
		},
		{
			"bufferView":14,
			"componentType":5126,
			"count":39,
			"type":"VEC3"
		},
		{
			"bufferView":15,
			"componentType":5126,
			"count":39,
			"type":"VEC2"
		},
		{
			"bufferView":16,
			"componentType":5121,
			"count":39,
			"type":"VEC4"
		},
		{
			"bufferView":17,
			"componentType":5126,
			"count":39,
			"type":"VEC4"
		},
		{
			"bufferView":18,
			"componentType":5123,
			"count":144,
			"type":"SCALAR"
		},
		{
			"bufferView":19,
			"componentType":5126,
			"count":125,
			"max":[
				0.6186570525169373,
				3.16251802444458,
				0.6186570525169373
			],
			"min":[
				-0.6186570525169373,
				1.925203800201416,
				-0.6186570525169373
			],
			"type":"VEC3"
		},
		{
			"bufferView":20,
			"componentType":5126,
			"count":125,
			"type":"VEC3"
		},
		{
			"bufferView":21,
			"componentType":5126,
			"count":125,
			"type":"VEC2"
		},
		{
			"bufferView":22,
			"componentType":5123,
			"count":125,
			"normalized":true,
			"type":"VEC4"
		},
		{
			"bufferView":23,
			"componentType":5121,
			"count":125,
			"type":"VEC4"
		},
		{
			"bufferView":24,
			"componentType":5126,
			"count":125,
			"type":"VEC4"
		},
		{
			"bufferView":25,
			"componentType":5123,
			"count":576,
			"type":"SCALAR"
		},
		{
			"bufferView":26,
			"componentType":5126,
			"count":33,
			"max":[
				0.5232051014900208,
				1,
				0.20000000298023224
			],
			"min":[
				0.17679491639137268,
				0,
				-0.20000000298023224
			],
			"type":"VEC3"
		},
		{
			"bufferView":27,
			"componentType":5126,
			"count":33,
			"type":"VEC3"
		},
		{
			"bufferView":28,
			"componentType":5126,
			"count":33,
			"type":"VEC2"
		},
		{
			"bufferView":29,
			"componentType":5121,
			"count":33,
			"type":"VEC4"
		},
		{
			"bufferView":30,
			"componentType":5126,
			"count":33,
			"type":"VEC4"
		},
		{
			"bufferView":31,
			"componentType":5126,
			"count":48,
			"max":[
				-0.17679491639137268,
				1,
				0.20000000298023224
			],
			"min":[
				-0.5232051014900208,
				0,
				-0.20000000298023224
			],
			"type":"VEC3"
		},
		{
			"bufferView":32,
			"componentType":5126,
			"count":48,
			"type":"VEC3"
		},
		{
			"bufferView":33,
			"componentType":5126,
			"count":48,
			"type":"VEC2"
		},
		{
			"bufferView":34,
			"componentType":5121,
			"count":48,
			"type":"VEC4"
		},
		{
			"bufferView":35,
			"componentType":5126,
			"count":48,
			"type":"VEC4"
		},
		{
			"bufferView":36,
			"componentType":5123,
			"count":96,
			"type":"SCALAR"
		},
		{
			"bufferView":37,
			"componentType":5126,
			"count":2,
			"max":[
				0.4166666666666667
			],
			"min":[
				0.041666666666666664
			],
			"type":"SCALAR"
		},
		{
			"bufferView":38,
			"componentType":5126,
			"count":2,
			"type":"VEC3"
		},
		{
			"bufferView":39,
			"componentType":5126,
			"count":2,
			"type":"VEC4"
		},
		{
			"bufferView":40,
			"componentType":5126,
			"count":2,
			"type":"VEC3"
		},
		{
			"bufferView":41,
			"componentType":5126,
			"count":2,
			"type":"VEC3"
		},
		{
			"bufferView":42,
			"componentType":5126,
			"count":2,
			"type":"VEC4"
		},
		{
			"bufferView":43,
			"componentType":5126,
			"count":2,
			"type":"VEC3"
		},
		{
			"bufferView":44,
			"componentType":5126,
			"count":2,
			"type":"VEC3"
		},
		{
			"bufferView":45,
			"componentType":5126,
			"count":2,
			"type":"VEC4"
		},
		{
			"bufferView":46,
			"componentType":5126,
			"count":2,
			"type":"VEC3"
		},
		{
			"bufferView":47,
			"componentType":5126,
			"count":2,
			"type":"VEC3"
		},
		{
			"bufferView":48,
			"componentType":5126,
			"count":2,
			"type":"VEC4"
		},
		{
			"bufferView":49,
			"componentType":5126,
			"count":2,
			"type":"VEC3"
		},
		{
			"bufferView":50,
			"componentType":5126,
			"count":10,
			"max":[
				0.4166666666666667
			],
			"min":[
				0.041666666666666664
			],
			"type":"SCALAR"
		},
		{
			"bufferView":51,
			"componentType":5126,
			"count":10,
			"type":"VEC4"
		},
		{
			"bufferView":52,
			"componentType":5126,
			"count":2,
			"type":"VEC3"
		},
		{
			"bufferView":53,
			"componentType":5126,
			"count":10,
			"type":"VEC4"
		},
		{
			"bufferView":54,
			"componentType":5126,
			"count":2,
			"type":"VEC3"
		},
		{
			"bufferView":55,
			"componentType":5126,
			"count":2,
			"type":"VEC3"
		},
		{
			"bufferView":56,
			"componentType":5126,
			"count":2,
			"type":"VEC4"
		},
		{
			"bufferView":57,
			"componentType":5126,
			"count":2,
			"type":"VEC3"
		},
		{
			"bufferView":58,
			"componentType":5126,
			"count":2,
			"type":"VEC4"
		},
		{
			"bufferView":59,
			"componentType":5126,
			"count":2,
			"type":"VEC3"
		},
		{
			"bufferView":60,
			"componentType":5126,
			"count":2,
			"type":"VEC4"
		},
		{
			"bufferView":61,
			"componentType":5126,
			"count":2,
			"type":"VEC3"
		},
		{
			"bufferView":62,
			"componentType":5126,
			"count":2,
			"type":"VEC4"
		}
	],
	"bufferViews":[
		{
			"buffer":0,
			"byteLength":576,
			"byteOffset":0,
			"target":34962
		},
		{
			"buffer":0,
			"byteLength":576,
			"byteOffset":576,
			"target":34962
		},
		{
			"buffer":0,
			"byteLength":384,
			"byteOffset":1152,
			"target":34962
		},
		{
			"buffer":0,
			"byteLength":192,
			"byteOffset":1536,
			"target":34962
		},
		{
			"buffer":0,
			"byteLength":768,
			"byteOffset":1728,
			"target":34962
		},
		{
			"buffer":0,
			"byteLength":192,
			"byteOffset":2496,
			"target":34963
		},
		{
			"buffer":0,
			"byteLength":640,
			"byteOffset":2688
		},
		{
			"buffer":0,
			"byteLength":396,
			"byteOffset":3328,
			"target":34962
		},
		{
			"buffer":0,
			"byteLength":396,
			"byteOffset":3724,
			"target":34962
		},
		{
			"buffer":0,
			"byteLength":264,
			"byteOffset":4120,
			"target":34962
		},
		{
			"buffer":0,
			"byteLength":132,
			"byteOffset":4384,
			"target":34962
		},
		{
			"buffer":0,
			"byteLength":528,
			"byteOffset":4516,
			"target":34962
		},
		{
			"buffer":0,
			"byteLength":192,
			"byteOffset":5044,
			"target":34963
		},
		{
			"buffer":0,
			"byteLength":468,
			"byteOffset":5236,
			"target":34962
		},
		{
			"buffer":0,
			"byteLength":468,
			"byteOffset":5704,
			"target":34962
		},
		{
			"buffer":0,
			"byteLength":312,
			"byteOffset":6172,
			"target":34962
		},
		{
			"buffer":0,
			"byteLength":156,
			"byteOffset":6484,
			"target":34962
		},
		{
			"buffer":0,
			"byteLength":624,
			"byteOffset":6640,
			"target":34962
		},
		{
			"buffer":0,
			"byteLength":288,
			"byteOffset":7264,
			"target":34963
		},
		{
			"buffer":0,
			"byteLength":1500,
			"byteOffset":7552,
			"target":34962
		},
		{
			"buffer":0,
			"byteLength":1500,
			"byteOffset":9052,
			"target":34962
		},
		{
			"buffer":0,
			"byteLength":1000,
			"byteOffset":10552,
			"target":34962
		},
		{
			"buffer":0,
			"byteLength":1000,
			"byteOffset":11552,
			"target":34962
		},
		{
			"buffer":0,
			"byteLength":500,
			"byteOffset":12552,
			"target":34962
		},
		{
			"buffer":0,
			"byteLength":2000,
			"byteOffset":13052,
			"target":34962
		},
		{
			"buffer":0,
			"byteLength":1152,
			"byteOffset":15052,
			"target":34963
		},
		{
			"buffer":0,
			"byteLength":396,
			"byteOffset":16204,
			"target":34962
		},
		{
			"buffer":0,
			"byteLength":396,
			"byteOffset":16600,
			"target":34962
		},
		{
			"buffer":0,
			"byteLength":264,
			"byteOffset":16996,
			"target":34962
		},
		{
			"buffer":0,
			"byteLength":132,
			"byteOffset":17260,
			"target":34962
		},
		{
			"buffer":0,
			"byteLength":528,
			"byteOffset":17392,
			"target":34962
		},
		{
			"buffer":0,
			"byteLength":576,
			"byteOffset":17920,
			"target":34962
		},
		{
			"buffer":0,
			"byteLength":576,
			"byteOffset":18496,
			"target":34962
		},
		{
			"buffer":0,
			"byteLength":384,
			"byteOffset":19072,
			"target":34962
		},
		{
			"buffer":0,
			"byteLength":192,
			"byteOffset":19456,
			"target":34962
		},
		{
			"buffer":0,
			"byteLength":768,
			"byteOffset":19648,
			"target":34962
		},
		{
			"buffer":0,
			"byteLength":192,
			"byteOffset":20416,
			"target":34963
		},
		{
			"buffer":0,
			"byteLength":8,
			"byteOffset":20608
		},
		{
			"buffer":0,
			"byteLength":24,
			"byteOffset":20616
		},
		{
			"buffer":0,
			"byteLength":32,
			"byteOffset":20640
		},
		{
			"buffer":0,
			"byteLength":24,
			"byteOffset":20672
		},
		{
			"buffer":0,
			"byteLength":24,
			"byteOffset":20696
		},
		{
			"buffer":0,
			"byteLength":32,
			"byteOffset":20720
		},
		{
			"buffer":0,
			"byteLength":24,
			"byteOffset":20752
		},
		{
			"buffer":0,
			"byteLength":24,
			"byteOffset":20776
		},
		{
			"buffer":0,
			"byteLength":32,
			"byteOffset":20800
		},
		{
			"buffer":0,
			"byteLength":24,
			"byteOffset":20832
		},
		{
			"buffer":0,
			"byteLength":24,
			"byteOffset":20856
		},
		{
			"buffer":0,
			"byteLength":32,
			"byteOffset":20880
		},
		{
			"buffer":0,
			"byteLength":24,
			"byteOffset":20912
		},
		{
			"buffer":0,
			"byteLength":40,
			"byteOffset":20936
		},
		{
			"buffer":0,
			"byteLength":160,
			"byteOffset":20976
		},
		{
			"buffer":0,
			"byteLength":24,
			"byteOffset":21136
		},
		{
			"buffer":0,
			"byteLength":160,
			"byteOffset":21160
		},
		{
			"buffer":0,
			"byteLength":24,
			"byteOffset":21320
		},
		{
			"buffer":0,
			"byteLength":24,
			"byteOffset":21344
		},
		{
			"buffer":0,
			"byteLength":32,
			"byteOffset":21368
		},
		{
			"buffer":0,
			"byteLength":24,
			"byteOffset":21400
		},
		{
			"buffer":0,
			"byteLength":32,
			"byteOffset":21424
		},
		{
			"buffer":0,
			"byteLength":24,
			"byteOffset":21456
		},
		{
			"buffer":0,
			"byteLength":32,
			"byteOffset":21480
		},
		{
			"buffer":0,
			"byteLength":24,
			"byteOffset":21512
		},
		{
			"buffer":0,
			"byteLength":32,
			"byteOffset":21536
		}
	],
	"buffers":[
		{
			"byteLength":21568,
			"uri":"test.bin"
		}
	]
}
